<svg aria-hidden="true" style="position: absolute; width: 0; height: 0; overflow: hidden;" version="1.1" xmlns="http://www.w3.org/2000/svg" xmlns:xlink="http://www.w3.org/1999/xlink">
<defs>
<symbol id="heart" viewBox="0 0 28 32">
<path fill="#ffa5ba" style="fill: var(--color1, #ffa5ba)" d="M7.36 0.625c-0.047-0.048 1.59 0.036 1.988 0.103 0.951 0.159 1.905 0.464 2.701 0.863 0.486 0.244 1.272 0.721 1.239 0.753-0.023 0.023-5.889-1.677-5.929-1.719zM16.796 2.393l3.279-1.786 0.825 0.026c0.582 0.018 0.937 0.054 1.203 0.119 1.332 0.325 2.687 1.16 3.551 2.188 1.018 1.212 1.603 2.48 1.909 4.138 0.137 0.744 0.149 2.623 0.022 3.444-0.311 2.006-0.941 3.615-2.084 5.331-0.596 0.895-1.137 1.542-2.074 2.481-1.891 1.895-3.313 2.854-6.301 4.243l-0.826 0.384-0.012 4.207-0.012 4.207h-1.415v-7.937l-0.106 0.031c-0.058 0.017-0.217 0.055-0.353 0.086-0.239 0.053-0.443 0.032-0.85-0.086l-0.106-0.031v7.937h-1.415v-8.399l-0.578-0.269c-3.253-1.514-4.598-2.405-6.503-4.304-1.682-1.677-2.596-2.999-3.383-4.887-0.325-0.78-0.78-2.252-0.711-2.303 0.168-0.127 1.294-0.775 1.301-0.75 0.006 0.020 0.065 0.29 0.133 0.602 0.378 1.742 1.221 3.457 2.458 5.001 0.514 0.642 1.655 1.788 2.377 2.388 1.808 1.501 3.566 2.473 6.17 3.412l0.863 0.311 0.93-0.338c1.157-0.42 1.914-0.747 2.79-1.203 1.578-0.823 2.737-1.623 4.014-2.77 1.372-1.232 2.363-2.526 3.114-4.063 0.601-1.229 1.109-2.623 0.969-2.656-0.033-0.008-0.471 0.124-0.974 0.293-1.489 0.5-2.839 0.794-4.432 0.967-1.45 0.157-1.37 0.018-1.42 2.479-0.039 1.944-0.075 2.327-0.255 2.698-0.149 0.308-0.63 0.762-0.995 0.942-0.26 0.127-0.309 0.135-0.865 0.132-0.497-0.002-0.633-0.020-0.863-0.11-0.334-0.131-0.777-0.528-0.975-0.873-0.282-0.494-0.293-0.59-0.335-3.143-0.022-1.284-0.057-2.409-0.079-2.5-0.051-0.213-0.254-0.349-1.058-0.711-1.548-0.698-2.286-1.14-4.018-2.399-0.67-0.487-1.428-1.012-1.685-1.164s-0.468-0.293-0.468-0.31 0.227-0.153 0.506-0.302c0.279-0.149 0.593-0.319 0.697-0.38l0.191-0.11 0.612 0.414 0.216 0.142c0.457 0.316 0.91 0.638 1.174 0.838 1.070 0.777 1.233 0.873 2.932 1.745 1.66 0.85 1.855 0.969 2.031 1.236 0.298 0.45 0.366 1.001 0.37 3.001 0.004 1.942 0.047 2.707 0.166 2.908 0.257 0.438 0.986 0.431 1.155-0.012 0.039-0.103 0.070-0.712 0.094-1.898 0.020-0.96 0.060-1.926 0.090-2.146 0.124-0.914 0.66-1.521 1.516-1.719 0.166-0.039 0.737-0.124 1.27-0.191 2.095-0.263 3.278-0.561 4.853-1.225 0.845-0.356 0.935-0.559 0.806-1.826-0.063-0.622-0.158-1.080-0.338-1.644-0.71-2.22-2.535-3.927-4.54-4.246-1.311-0.209-3.014 0.135-4.569 0.921-0.626 0.317-0.954 0.535-1.59 1.061-0.747 0.617-0.911 0.699-1.224 0.613-0.225-0.062-0.594-0.356-0.512-0.407 0.034-0.021 1.537-0.841 3.34-1.823zM18.751 0.729c-0.767 0.14-1.838 0.514-2.643 0.924-0.658 0.335-1.75 1.075-1.361 0.922 0.050-0.020 1.194-0.449 2.543-0.956s2.462-0.929 2.473-0.94c0.044-0.043-0.702-0.007-1.013 0.049zM5.764 0.871c-0.19 0.062-0.583 0.228-0.873 0.37-1.776 0.871-3.14 2.498-3.826 4.566-0.25 0.753-0.335 1.148-0.409 1.907-0.076 0.77-0.007 2.951 0.093 2.948 0.017-0.001 0.312-0.521 0.657-1.156l0.627-1.155 0.067-0.634c0.069-0.654 0.172-1.186 0.265-1.359 0.047-0.087 0.058-0.089 0.095-0.022 0.023 0.042 0.074 0.065 0.113 0.049 0.055-0.021 0.058-0.042 0.017-0.092-0.045-0.055 0.001-0.065 0.277-0.065h0.331l0.353-0.649c0.231-0.424 0.335-0.659 0.3-0.679-0.029-0.017-0.166-0.046-0.303-0.064-0.244-0.033-0.25-0.037-0.222-0.166 0.017-0.076 0.007-0.146-0.022-0.164-0.143-0.089 1.089-1.334 1.634-1.652 0.114-0.066 0.248-0.267 0.562-0.846 0.226-0.417 0.474-0.87 0.551-1.007s0.121-0.247 0.098-0.246c-0.164 0.041-0.292 0.080-0.419 0.124l0.033-0.010zM7.251 2.316c-0.603 0.065-1.412 0.318-1.801 0.562-0.178 0.113-1.091 1.75-1.002 1.798 0.031 0.017 0.258 0.066 0.505 0.111 1.146 0.206 2.467 0.66 3.311 1.139l0.362 0.206 1.855-1.132c1.020-0.623 1.86-1.148 1.867-1.168 0.019-0.056-0.888-0.606-1.422-0.863-0.246-0.12-0.544-0.239-0.852-0.338l-0.050-0.014c-0.89-0.254-2.046-0.38-2.775-0.302zM19.532 2.334c-1.642 0.294-2.97 0.913-4.246 1.981-0.988 0.826-1.28 0.836-2.175 0.071-0.332-0.284-0.452-0.361-0.511-0.33-0.071 0.038-3.649 2.219-3.667 2.236-0.005 0.004 0.314 0.223 0.708 0.486 0.616 0.412 1.064 0.729 1.507 1.053l-0.13-0.091c1.041 0.762 1.367 0.957 2.948 1.768 0.818 0.418 1.593 0.828 1.722 0.909 0.51 0.319 0.774 0.872 0.849 1.783 0.017 0.209 0.046 1.321 0.063 2.47l0.031 2.089 0.142 0.113c0.156 0.125 0.339 0.146 0.465 0.054 0.129-0.094 0.17-0.554 0.172-1.898 0.003-2.408 0.129-2.998 0.763-3.585 0.509-0.471 0.814-0.567 2.47-0.778 1.914-0.244 2.972-0.504 4.402-1.080 0.705-0.285 0.882-0.409 0.921-0.646 0.033-0.204-0.037-1.252-0.108-1.625-0.277-1.443-0.888-2.631-1.826-3.546-0.657-0.641-1.535-1.16-2.308-1.364-0.479-0.126-1.662-0.163-2.189-0.069zM3.207 4.518c-0.001 0.090-0.061 0.247-0.094 0.247-0.067 0-0.096-0.153-0.042-0.218 0.058-0.070 0.137-0.087 0.136-0.030zM3.239 6.757c-0.063 0.111-0.293 0.521-0.51 0.91l-0.394 0.708 0.005 0.722c0.003 0.398 0.025 0.742 0.050 0.767 0.028 0.028 0.814-0.425 2.089-1.203 1.124-0.686 2.065-1.266 2.089-1.291 0.048-0.048-0.506-0.265-1.169-0.457-0.354-0.103-1.23-0.263-1.799-0.329l-0.245-0.028-0.116 0.201zM4.694 8.868c-1.31 0.802-2.224 1.391-2.233 1.438-0.030 0.151 0.19 1.089 0.418 1.782 0.621 1.888 1.586 3.385 3.249 5.040 0.874 0.869 1.468 1.37 2.383 2.014 1.472 1.033 3.118 1.85 5.076 2.517l0.59 0.201 0.566-0.201c1.933-0.686 3.314-1.364 4.86-2.384 0.97-0.641 1.788-1.313 2.668-2.193 1.336-1.336 2.197-2.625 2.903-4.346 0.277-0.676 0.449-1.177 0.404-1.177-0.019 0-0.321 0.097-0.67 0.215-1.297 0.438-2.737 0.748-4.266 0.916-0.532 0.058-0.937 0.126-0.997 0.165-0.063 0.050-0.111 0.118-0.133 0.197l-0.001 0.003c-0.018 0.073-0.052 0.961-0.074 1.972-0.044 1.929-0.080 2.272-0.283 2.692-0.228 0.472-0.843 0.996-1.353 1.153-0.342 0.105-0.918 0.126-1.34 0.047-0.638-0.118-1.269-0.597-1.566-1.188-0.269-0.534-0.274-0.585-0.319-3.105-0.023-1.285-0.060-2.399-0.082-2.477-0.044-0.158-0.122-0.202-1.526-0.867-1.11-0.526-1.887-0.998-3.107-1.889-0.321-0.243-0.823-0.604-1.33-0.957l-0.211-0.139c-0.452-0.304-1.318-0.801-1.379-0.792-0.016 0.002-1.026 0.615-2.246 1.362z"></path>
</symbol>
<symbol id="milk" viewBox="0 0 32 32">
<path fill="#ffa5ba" style="fill: var(--color1, #ffa5ba)" d="M8.093 0.144c-0.35 0.188-0.553 0.563-0.553 1.006 0.006 0.813 0.209 1.556 0.614 2.2l0.178 0.294-0.338 0.381c-0.381 0.425-0.473 0.581-0.645 1.088-0.141 0.412-0.153 1.162-0.031 1.581 0.43 1.438 1.854 2.269 3.248 1.9 0.473-0.125 0.761-0.281 1.203-0.656l0.375-0.312 0.35 0.175c0.196 0.1 0.528 0.244 0.743 0.325l0.381 0.138v0.7c0 1.106 0.227 1.762 0.81 2.356s1.498 0.9 2.29 0.762c0.565-0.1 1.117-0.381 1.492-0.762 0.583-0.594 0.81-1.25 0.81-2.356v-0.7l0.387-0.138c0.209-0.081 0.54-0.225 0.737-0.325l0.35-0.175 0.375 0.312c0.442 0.375 0.731 0.531 1.203 0.656 1.394 0.369 2.818-0.462 3.248-1.9 0.123-0.419 0.111-1.169-0.031-1.581-0.172-0.506-0.264-0.662-0.645-1.088l-0.338-0.381 0.178-0.294c0.405-0.644 0.608-1.387 0.614-2.2 0-0.444-0.203-0.819-0.553-1.006l-0.264-0.144h-15.926l-0.264 0.144zM22.828 2.1c0 0.019-0.178 0.313-0.399 0.663-0.651 1.031-0.626 1.256 0.239 2.169 0.313 0.331 0.602 0.662 0.645 0.737 0.233 0.463-0.233 1.038-0.749 0.919-0.123-0.025-0.393-0.244-0.786-0.631-0.786-0.775-1.056-0.862-1.658-0.519-0.694 0.4-1.578 0.806-2.008 0.925-0.608 0.175-0.817 0.306-0.976 0.638-0.129 0.256-0.141 0.362-0.141 1.362 0 1.231-0.049 1.431-0.399 1.6-0.252 0.125-0.301 0.125-0.553 0-0.35-0.169-0.399-0.369-0.399-1.6 0-1-0.012-1.106-0.135-1.362-0.166-0.325-0.375-0.463-0.982-0.638-0.528-0.15-1.308-0.494-1.738-0.775-0.405-0.263-0.761-0.362-1.044-0.313-0.184 0.037-0.368 0.181-0.86 0.662-0.405 0.394-0.694 0.625-0.817 0.65-0.51 0.119-0.976-0.463-0.743-0.919 0.043-0.075 0.332-0.406 0.645-0.737 0.866-0.912 0.89-1.138 0.239-2.169-0.221-0.35-0.399-0.644-0.399-0.663 0-0.025 2.929-0.038 6.508-0.038s6.508 0.013 6.508 0.038z"></path>
<path fill="#ffa5ba" style="fill: var(--color1, #ffa5ba)" d="M6.245 13.206c-0.313 0.212-0.485 0.512-0.485 0.844 0 0.225 3.119 16.925 3.229 17.275 0.055 0.194 0.282 0.425 0.522 0.55 0.227 0.125 0.387 0.125 6.809 0.125s6.582 0 6.809-0.125c0.239-0.125 0.467-0.356 0.522-0.55 0.11-0.35 3.229-17.050 3.229-17.275 0-0.331-0.172-0.631-0.485-0.844l-0.209-0.144h-19.732l-0.209 0.144zM24.455 15.481c-0.061 0.5-0.418 1.587-0.682 2.081-1.283 2.375-3.714 3.819-6.729 3.988-2.278 0.131-4.206-0.331-5.82-1.394-0.933-0.612-1.713-1.45-2.265-2.438-0.307-0.544-0.712-1.712-0.774-2.237l-0.043-0.356h16.356l-0.043 0.356zM10.15 21.919c2.634 1.775 6.569 2.244 9.885 1.169 1.105-0.356 2.235-0.956 3.18-1.688 0.276-0.219 0.295-0.219 0.264-0.081-0.018 0.081-0.381 1.994-0.804 4.244s-0.78 4.156-0.798 4.231l-0.031 0.144h-11.051l-0.031-0.144c-0.018-0.075-0.375-1.981-0.798-4.231s-0.786-4.163-0.804-4.244c-0.031-0.137-0.012-0.137 0.264 0.081 0.16 0.125 0.491 0.356 0.724 0.519z"></path>
</symbol>
<symbol id="grey-dot" viewBox="0 0 32 32">
<path fill="#d9d9d9" style="fill: var(--color2, #d9d9d9)" d="M32 16c0 8.837-7.163 16-16 16s-16-7.163-16-16c0-8.837 7.163-16 16-16s16 7.163 16 16z"></path>
</symbol>
<symbol id="section4-dots" viewBox="0 0 256 32">
<path fill="#c7133e" style="fill: var(--color3, #c7133e)" d="M144 16c0 8.837-7.163 16-16 16s-16-7.163-16-16c0-8.837 7.163-16 16-16s16 7.163 16 16z"></path>
<path fill="#c7133e" style="fill: var(--color3, #c7133e)" d="M32 16c0 8.837-7.163 16-16 16s-16-7.163-16-16c0-8.837 7.163-16 16-16s16 7.163 16 16z"></path>
<path fill="#c7133e" style="fill: var(--color3, #c7133e)" d="M256 16c0 8.837-7.163 16-16 16s-16-7.163-16-16c0-8.837 7.163-16 16-16s16 7.163 16 16z"></path>
</symbol>
<symbol id="house-section4" viewBox="0 0 32 32">
<path fill="#d31342" style="fill: var(--color4, #d31342)" d="M31.599 16.766c0.58-0.595 0.524-1.507-0.125-2.037l-14.301-11.673c-0.649-0.53-1.69-0.518-2.325 0.025l-14.35 12.27c-0.635 0.543-0.667 1.454-0.069 2.034l0.36 0.35c0.597 0.579 1.562 0.648 2.154 0.154l1.072-0.896v13.116c0 0.805 0.699 1.456 1.561 1.456h5.594c0.862 0 1.561-0.651 1.561-1.456v-9.176h7.135v9.176c-0.012 0.804 0.604 1.455 1.466 1.455h5.928c0.862 0 1.561-0.651 1.561-1.456v-12.93c0 0 0.296 0.242 0.662 0.542s1.131 0.059 1.711-0.536l0.407-0.417z"></path>
</symbol>
<symbol id="quotation-marks" viewBox="0 0 43 32">
<path fill="#e1e1e1" style="fill: var(--color5, #e1e1e1)" d="M32.014 0c1.929 0 3.75 0.52 5.464 1.561s3.107 2.537 4.179 4.488c1.029 1.951 1.543 4.249 1.543 6.894s-0.643 5.225-1.929 7.74c-0.429 0.911-1.2 2.081-2.314 3.512-1.157 1.431-2.229 2.667-3.214 3.707l-4.050 4.098-2.893-4.813c2.014-1.257 3.793-2.818 5.336-4.683 1.543-1.821 2.314-3.491 2.314-5.008 0-0.78-0.171-1.409-0.514-1.886-1.5 1.084-3.171 1.626-5.014 1.626-1.329 0-2.593-0.412-3.793-1.236-1.243-0.78-2.229-1.821-2.957-3.122-0.771-1.258-1.157-2.558-1.157-3.902 0-1.518 0.45-2.97 1.35-4.358 0.857-1.388 1.993-2.515 3.407-3.382 1.371-0.824 2.786-1.236 4.243-1.236zM8.936 0c1.929 0 3.75 0.52 5.464 1.561s3.107 2.537 4.179 4.488c1.029 1.951 1.543 4.249 1.543 6.894 0 1.864-0.236 3.534-0.707 5.008-0.471 1.518-1.286 3.1-2.443 4.748-1.114 1.561-2.164 2.862-3.15 3.902-0.986 1.084-2.7 2.884-5.143 5.398l-2.893-4.813c2.014-1.257 3.793-2.818 5.336-4.683 1.543-1.821 2.314-3.491 2.314-5.008 0-0.78-0.171-1.409-0.514-1.886-1.5 1.084-3.171 1.626-5.014 1.626-1.329 0-2.593-0.412-3.793-1.236-1.243-0.78-2.229-1.821-2.957-3.122-0.771-1.258-1.157-2.558-1.157-3.902 0-1.518 0.429-2.97 1.286-4.358s1.993-2.515 3.407-3.382c1.371-0.824 2.786-1.236 4.243-1.236z"></path>
</symbol>
<symbol id="white-dot" viewBox="0 0 32 32">
<path fill="#fff" style="fill: var(--color6, #fff)" d="M32 16c0 8.837-7.163 16-16 16s-16-7.163-16-16c0-8.837 7.163-16 16-16s16 7.163 16 16z"></path>
</symbol>
<symbol id="logo" viewBox="0 0 127 32">
<path fill="#fff" style="fill: var(--color6, #fff)" d="M31.36 16.32c0 8.66-6.877 15.68-15.36 15.68s-15.36-7.020-15.36-15.68c0-8.66 6.877-15.68 15.36-15.68s15.36 7.020 15.36 15.68z"></path>
<path fill="#d41443" style="fill: var(--color7, #d41443)" d="M11.849 0.562c-7.406 2.243-11.849 8.073-11.849 15.442 0 6.023 3.091 11.277 8.179 13.904 2.64 1.346 3.027 0.384 0.58-1.474-1.739-1.41-2.061-2.050-2.061-4.421 0-1.666-0.386-3.011-0.966-3.524-1.159-0.961-1.288-3.46-0.129-4.357 0.451-0.384 0.902-1.666 0.966-2.819 0.322-4.229 4.894-8.201 9.467-8.201s9.145 3.973 9.466 8.201c0.064 1.153 0.515 2.435 0.966 2.819 1.159 0.897 1.030 3.396-0.129 4.357-0.58 0.513-0.966 1.858-0.966 3.524 0 2.371-0.322 3.011-2.061 4.421-2.705 2.114-1.932 2.883 1.095 1.025 4.25-2.627 7.406-8.33 7.406-13.391 0-10.124-10.561-18.325-19.963-15.506z"></path>
<path fill="#d41443" style="fill: var(--color7, #d41443)" d="M12.686 7.994c-1.159 0.513-2.125 1.153-2.125 1.538 0 0.705 3.477 1.986 5.474 1.986s5.474-1.281 5.474-1.986c0-0.769-3.993-2.499-5.603-2.499-0.644 0.064-2.125 0.449-3.22 0.961z"></path>
<path fill="#d41443" style="fill: var(--color7, #d41443)" d="M45.851 11.326c-0.966 0.256-1.159 1.089-1.159 5.703v5.382h4.572l-0.193-5.574c-0.193-5.831-0.451-6.279-3.22-5.51z"></path>
<path fill="#d41443" style="fill: var(--color7, #d41443)" d="M53.386 11.646c-2.125 1.153-2.898 2.563-2.898 5.318 0 3.78 2.061 5.574 5.86 5.318 2.576-0.192 2.833-0.384 3.027-1.986s0.064-1.73-1.932-1.602c-2.061 0.192-2.125 0.064-2.125-2.050s0.129-2.243 1.996-2.050c1.546 0.128 2.125-0.128 2.383-1.089 0.129-0.641 0-1.538-0.386-1.922-0.902-0.897-4.25-0.897-5.925 0.064z"></path>
<path fill="#d41443" style="fill: var(--color7, #d41443)" d="M61.049 11.71c-0.193 0.513-0.258 3.011-0.129 5.638l0.193 4.741h4.186c3.864 0 4.186-0.128 4.379-1.474 0.193-1.217-0.064-1.41-2.060-1.41-1.288 0-2.319-0.32-2.319-0.641 0-0.384 0.902-0.641 1.932-0.641 1.481 0 1.932-0.256 1.932-1.281s-0.451-1.281-1.932-1.281c-1.030 0-1.932-0.32-1.932-0.641 0-0.384 0.837-0.641 1.868-0.641 1.804 0 3.027-1.41 2.254-2.627-0.58-0.961-7.985-0.705-8.372 0.256z"></path>
<path fill="#d41443" style="fill: var(--color7, #d41443)" d="M73.993 11.518c-2.125 0.833-2.962 2.307-3.027 4.998-0.065 4.613 1.803 6.215 6.633 5.767 1.868-0.128 2.189-0.448 2.189-1.794 0-1.41-0.257-1.602-2.061-1.41-1.546 0.128-2.125-0.064-2.447-1.089-0.58-1.986 0.644-3.588 2.705-3.588 1.224 0 1.868-0.384 1.996-1.217 0.451-2.050-2.833-3.011-5.989-1.666z"></path>
<path fill="#d41443" style="fill: var(--color7, #d41443)" d="M81.914 11.262c-0.323 0.256-0.515 2.883-0.515 5.831v5.382l2.060-0.192c1.61-0.128 2.19-0.577 2.512-1.794l0.386-1.602 0.515 1.73c0.387 1.474 0.837 1.794 2.512 1.794 2.769 0 3.091-0.448 1.932-2.691-0.708-1.41-0.837-2.114-0.322-2.627 0.837-0.833 0.902-3.652 0.129-4.87-0.644-1.025-8.371-1.858-9.208-0.961zM87.194 14.722c0 0.705-0.257 1.281-0.644 1.281-0.322 0-0.644-0.577-0.644-1.281s0.322-1.281 0.644-1.281c0.387 0 0.644 0.577 0.644 1.281z"></path>
<path fill="#d41443" style="fill: var(--color7, #d41443)" d="M93.441 11.326c-0.258 0.192-0.451 2.819-0.451 5.767v5.318h4.186c4.057 0 4.186-0.064 4.186-1.602 0-1.346-0.322-1.602-1.932-1.602-1.030 0-1.932-0.32-1.932-0.641 0-0.384 0.708-0.641 1.61-0.641 1.159 0 1.61-0.32 1.61-1.281s-0.451-1.281-1.61-1.281c-0.902 0-1.61-0.32-1.61-0.641 0-0.384 0.902-0.641 1.932-0.641 1.61 0 1.932-0.256 1.932-1.602 0-1.538-0.193-1.602-3.735-1.602-2.061 0-3.992 0.192-4.186 0.448z"></path>
<path fill="#d41443" style="fill: var(--color7, #d41443)" d="M106.45 11.262c-1.16 0.32-4.122 8.842-3.542 10.252 0.515 1.281 3.413 1.153 4.186-0.192 0.579-1.089 0.644-1.089 1.803 0 1.482 1.281 4.701 1.474 4.701 0.256 0-0.384-0.644-2.947-1.482-5.574-1.288-4.229-1.674-4.806-3.027-4.934-0.902 0-2.061 0.064-2.64 0.192zM108.253 17.093c-0.193 0.641-0.322 0.256-0.322-0.769 0-1.089 0.129-1.538 0.322-1.153 0.129 0.448 0.129 1.346 0 1.922z"></path>
<path fill="#d41443" style="fill: var(--color7, #d41443)" d="M115.723 11.326c-0.58 0.192-0.837 1.986-0.837 5.703v5.382h1.868c1.61 0 1.932-0.32 2.189-1.794 0.257-1.666 0.257-1.666 0.772-0.32 0.258 0.833 0.902 1.474 1.352 1.474 0.515 0 1.224-0.641 1.546-1.474 0.515-1.346 0.58-1.346 0.58 0.384 0.065 1.602 0.257 1.794 2.061 1.602l1.996-0.192 0.065-5.318c0.129-4.934 0.064-5.318-1.288-5.638-2.061-0.513-3.799 0.705-4.379 3.076l-0.451 2.114-0.708-2.243c-0.902-3.011-2.254-3.78-4.765-2.755z"></path>
<path fill="#d41443" style="fill: var(--color7, #d41443)" d="M9.016 11.967c-0.193 0.256-0.386 1.089-0.386 1.922 0 1.474 0.064 1.474 7.406 1.474s7.406 0 7.406-1.474c0-2.178-0.58-2.435-2.64-1.41-2.318 1.217-7.213 1.217-9.531 0-1.030-0.513-1.996-0.705-2.254-0.513z"></path>
<path fill="#d41443" style="fill: var(--color7, #d41443)" d="M7.148 17.669c-1.030 1.089 0.708 1.538 5.731 1.538h5.409v2.243c0 1.217 0.322 2.243 0.644 2.243 0.386 0 0.644-0.961 0.644-2.178 0-2.114 0.129-2.243 2.576-2.435 1.417-0.128 2.576-0.513 2.576-0.833 0-0.705-16.872-1.281-17.581-0.577z"></path>
<path fill="#d41443" style="fill: var(--color7, #d41443)" d="M8.629 23.308c0 3.524 1.224 4.229 7.406 4.229s7.406-0.705 7.406-4.229c0-1.538-0.322-2.178-0.966-2.178-0.58 0-0.966 0.577-0.966 1.538 0 3.588-4.894 3.908-5.603 0.384-0.322-1.858-0.515-1.922-3.8-1.922h-3.477v2.178z"></path>
<path fill="#d41443" style="fill: var(--color7, #d41443)" d="M12.622 30.548c0.386 2.050 6.955 1.858 6.955-0.128 0-0.705-0.837-0.961-3.606-0.961-3.027 0-3.542 0.192-3.349 1.089z"></path>
</symbol>
<symbol id="facebook" viewBox="0 0 32 32">
<path fill="#fea5bb" style="fill: var(--color8, #fea5bb)" d="M16 32c8.837 0 16-7.163 16-16s-7.163-16-16-16c-8.837 0-16 7.163-16 16s7.163 16 16 16z"></path>
<path fill="#fff" style="fill: var(--color6, #fff)" d="M20.446 15.982h-2.61v9.619h-3.955v-9.619h-1.881v-3.38h1.881v-2.187c0-1.564 0.739-4.014 3.99-4.014l2.929 0.012v3.281h-2.125c-0.349 0-0.839 0.175-0.839 0.921v1.989h2.955l-0.346 3.377z"></path>
</symbol>
<symbol id="telegram" viewBox="0 0 32 32">
<path fill="#fea5bb" style="fill: var(--color8, #fea5bb)" d="M32 16c0 8.837-7.163 16-16 16s-16-7.163-16-16c0-8.837 7.163-16 16-16s16 7.163 16 16z"></path>
<path fill="#fff" style="fill: var(--color6, #fff)" d="M12.867 18.375l-0.318 4.169c0.454 0 0.651-0.182 0.887-0.401l2.13-1.9 4.415 3.017c0.81 0.421 1.38 0.199 1.598-0.695l2.898-12.673c0.257-1.117-0.433-1.554-1.222-1.28l-17.032 6.086c-1.162 0.421-1.145 1.026-0.198 1.3l4.354 1.264 10.115-5.907c0.476-0.294 0.909-0.131 0.553 0.163l-8.182 6.857z"></path>
</symbol>
<symbol id="github" viewBox="0 0 32 32">
<path fill="#fea5bb" style="fill: var(--color8, #fea5bb)" d="M32 16c0 8.837-7.163 16-16 16s-16-7.163-16-16c0-8.837 7.163-16 16-16s16 7.163 16 16z"></path>
<path fill="#fff" style="fill: var(--color6, #fff)" d="M16 6.588c-5.169 0-9.412 4.242-9.412 9.412 0 4.411 3.095 8.419 7.206 9.412v-3.114c-0.407 0.089-0.782 0.092-1.197-0.030-0.556-0.164-1.008-0.535-1.344-1.1-0.214-0.361-0.593-0.752-0.988-0.723l-0.097-1.099c0.855-0.073 1.595 0.521 2.034 1.259 0.195 0.328 0.419 0.52 0.708 0.605 0.278 0.082 0.578 0.043 0.926-0.080 0.088-0.698 0.407-0.959 0.648-1.326v-0.001c-2.451-0.366-3.428-1.666-3.816-2.693-0.514-1.363-0.238-3.066 0.671-4.142 0.018-0.021 0.050-0.076 0.037-0.114-0.417-1.258 0.091-2.299 0.11-2.41 0.481 0.142 0.559-0.143 2.089 0.786l0.264 0.159c0.111 0.066 0.076 0.028 0.186 0.020 0.639-0.173 1.312-0.269 1.975-0.278 0.668 0.009 1.337 0.104 2.002 0.285l0.086 0.009c-0.007-0.001 0.023-0.005 0.075-0.036 1.911-1.157 1.842-0.779 2.355-0.946 0.019 0.111 0.519 1.169 0.107 2.411-0.056 0.171 1.657 1.739 0.708 4.256-0.388 1.027-1.365 2.328-3.816 2.693v0.001c0.314 0.479 0.692 0.734 0.69 1.722v3.887c4.111-0.993 7.206-5 7.206-9.412 0-5.169-4.242-9.412-9.412-9.412v0z"></path>
</symbol>
<symbol id="apple" viewBox="0 0 32 32">
<path fill="#ffa5ba" style="fill: var(--color1, #ffa5ba)" d="M29.626 21.411c-1.292-0.458-2.382-0.344-3.242 0.018 0.145-0.877 0.47-1.832 1.17-2.481 0.431-0.4 0.456-1.074 0.056-1.505s-1.074-0.456-1.505-0.056c-1.229 1.14-1.706 2.748-1.874 4.081-0.32-0.144-0.673-0.253-1.058-0.311l1.89-9.83c0.060-0.312-0.022-0.634-0.225-0.879s-0.503-0.387-0.821-0.387h-0.204c0.094-0.5 0.141-0.997 0.137-1.47-0.016-1.994-0.903-3.495-2.374-4.017-1.41-0.5-2.59-0.35-3.507 0.066 0.145-0.976 0.494-2.063 1.282-2.794 0.431-0.4 0.456-1.074 0.056-1.505s-1.074-0.456-1.505-0.056c-1.32 1.225-1.815 2.965-1.982 4.386-0.735-0.348-1.644-0.527-2.708-0.33-1.094-1.571-2.613-2.296-4.089-1.942-1.451 0.349-2.358 1.115-2.901 1.962-0.41-0.899-0.712-2.001-0.452-3.036 0.143-0.57-0.203-1.149-0.773-1.292s-1.149 0.203-1.292 0.773c-0.439 1.746 0.095 3.476 0.729 4.758-1.016 0.137-2.117 0.65-3.049 1.866-0.578 0.755-0.773 1.698-0.596 2.7-0.173 0.065-0.329 0.173-0.449 0.318-0.202 0.245-0.285 0.567-0.225 0.879l3.809 19.809c0.096 0.501 0.535 0.864 1.046 0.864h15.237c0.511 0 0.949-0.362 1.046-0.864l0.038-0.195c0.287 0.198 0.596 0.363 0.927 0.487 1.266 0.471 2.447 0.278 3.044 0.118 0.316 0.085 0.795 0.179 1.364 0.179 0.506 0 1.084-0.075 1.68-0.297 2.36-0.879 3.615-3.839 3.596-6.178-0.015-1.904-0.866-3.339-2.276-3.839zM22.674 12.19c-0.49 4.705-4.452 7.91-9.971 7.91s-9.481-3.204-9.971-7.91h19.942zM16.032 7.515c0.184 0.349 0.536 0.567 0.93 0.567s0.746-0.218 0.93-0.567c0.029-0.048 0.29-0.466 0.769-0.777 0.629-0.408 1.35-0.46 2.203-0.157 0.851 0.302 0.952 1.518 0.956 2.027 0.004 0.463-0.064 0.962-0.191 1.453h-7.126c0.236-1.19 0.094-2.492-0.289-3.669 0.377 0.022 0.724 0.137 1.047 0.346 0.479 0.311 0.74 0.729 0.769 0.777zM3.077 8.724c0.55-0.719 1.182-1.068 1.932-1.069h0.002c0.57 0 1.016 0.208 1.066 0.232 0.341 0.189 0.749 0.172 1.079-0.037 0.331-0.211 0.51-0.592 0.481-0.983-0.006-0.077-0.116-1.893 1.983-2.397 0.876-0.211 1.625 0.754 1.906 1.178 0.807 1.22 1.221 3.108 0.777 4.413h-9.349c-0.141-0.443-0.179-0.943 0.122-1.336zM5.851 29.87l-2.111-10.978c0.138 0.133 0.281 0.263 0.427 0.389 2.208 1.901 5.239 2.948 8.535 2.948s6.328-1.047 8.535-2.948c0.052-0.044 0.102-0.090 0.152-0.135l-0.431 2.243c-0.020 0.007-0.041 0.013-0.061 0.021-1.41 0.5-2.261 1.935-2.276 3.839-0.009 1.164 0.297 2.483 0.898 3.622l-0.192 0.999h-13.477zM27.562 29.432c-0.943 0.351-1.881 0.017-1.916 0.005-0.25-0.097-0.518-0.099-0.768-0-0.009 0.004-0.96 0.352-1.917-0.005-1.338-0.498-2.223-2.556-2.21-4.165 0.004-0.466 0.095-1.578 0.858-1.849 0.349-0.124 0.661-0.175 0.939-0.175 1.108 0 1.657 0.812 1.782 1.024 0.184 0.35 0.535 0.569 0.931 0.569s0.747-0.219 0.931-0.569c0.156-0.265 0.977-1.468 2.721-0.849 0.763 0.271 0.854 1.383 0.858 1.849 0.013 1.609-0.872 3.667-2.21 4.166z"></path>
</symbol>
<symbol id="arrow" viewBox="0 0 19 32">
<path d="M2.758 0.032c-0.716 0.101-1.341 0.432-1.811 0.914l-0.001 0.001c-0.409 0.4-0.709 0.91-0.853 1.482l-0.005 0.022c-0.047 0.225-0.074 0.484-0.074 0.749s0.027 0.524 0.079 0.773l-0.004-0.025c0.093 0.371 0.25 0.726 0.458 1.034 0.131 0.195 1.334 1.418 5.546 5.632l5.379 5.386-5.379 5.382c-4.211 4.218-5.414 5.44-5.546 5.635-0.201 0.296-0.358 0.641-0.453 1.011l-0.005 0.023c-0.047 0.225-0.074 0.484-0.074 0.749s0.027 0.524 0.079 0.773l-0.004-0.025c0.288 1.158 1.203 2.074 2.362 2.362 0.403 0.099 1.094 0.099 1.498 0 0.371-0.093 0.726-0.25 1.034-0.458 0.198-0.131 1.638-1.558 6.877-6.794 7.053-7.053 6.832-6.826 7.072-7.376 0.159-0.345 0.252-0.748 0.252-1.173 0-0.039-0.001-0.078-0.002-0.116l0 0.006c0.001-0.033 0.002-0.072 0.002-0.11 0-0.425-0.093-0.828-0.259-1.191l0.007 0.018c-0.24-0.55-0.019-0.323-7.072-7.376-6.97-6.97-6.816-6.819-7.338-7.056-0.407-0.173-0.881-0.273-1.378-0.273-0.136 0-0.27 0.007-0.402 0.022l0.016-0.001z"></path>
</symbol>
<symbol id="white-dots" viewBox="0 0 139 32">
<path fill="#fff" style="fill: var(--color1, #fff)" d="M85.333 16c0 8.837-7.163 16-16 16s-16-7.163-16-16c0-8.837 7.163-16 16-16s16 7.163 16 16z"></path>
<path fill="#fff" style="fill: var(--color1, #fff)" d="M32 16c0 8.837-7.163 16-16 16s-16-7.163-16-16c0-8.837 7.163-16 16-16s16 7.163 16 16z"></path>
<path fill="#fff" style="fill: var(--color1, #fff)" d="M138.667 16c0 8.837-7.163 16-16 16s-16-7.163-16-16c0-8.837 7.163-16 16-16s16 7.163 16 16z"></path>
</symbol>
<symbol id="Burger-menu" viewBox="0 0 46 32">
<path d="M0 2.286v1.143h45.714v-2.286h-45.714v1.143zM0 16v1.143h45.714v-2.286h-45.714v1.143zM0 29.714v1.143h45.714v-2.286h-45.714v1.143z"></path>
</symbol>
<symbol id="circle" viewBox="0 0 32 32">
<path d="M15.040 1.364l-0.747 0.080c-2.517 0.267-4.972 1.253-7.147 2.869-0.812 0.604-2.235 2.027-2.845 2.843-3.331 4.463-3.9 10.22-1.505 15.217 0.728 1.517 1.572 2.695 2.855 3.976 1.281 1.283 2.459 2.127 3.976 2.855 4.996 2.395 10.757 1.823 15.223-1.511 0.812-0.605 2.239-2.032 2.844-2.844 3.965-5.313 3.965-12.385 0-17.699-0.605-0.811-2.031-2.236-2.84-2.837-2.127-1.581-4.367-2.5-6.956-2.852-0.564-0.077-2.465-0.141-2.857-0.097zM17.76 4.135c3.417 0.516 6.405 2.44 8.32 5.359 0.404 0.617 0.991 1.812 1.243 2.533 0.461 1.324 0.647 2.46 0.647 3.973 0 1.991-0.343 3.495-1.196 5.253-0.94 1.939-2.359 3.556-4.204 4.789-1.052 0.704-2.735 1.408-4.025 1.687-0.758 0.169-1.628 0.266-2.521 0.266-2.859 0-5.486-0.994-7.554-2.655l0.024 0.018c-2.017-1.616-3.531-3.987-4.137-6.479-0.248-1.017-0.325-1.696-0.325-2.88 0-1.991 0.343-3.495 1.196-5.253 1.426-2.886 3.895-5.074 6.902-6.1l0.084-0.025c0.94-0.311 1.696-0.464 2.907-0.589 0.429-0.044 2.095 0.020 2.64 0.103z"></path>
</symbol>
<symbol id="arrow-right" viewBox="0 0 32 32">
<path d="M15.56 5.415c-0.296 0.108-0.56 0.331-0.723 0.607-0.123 0.208-0.144 0.305-0.143 0.645 0 0.283 0.029 0.455 0.099 0.587 0.053 0.103 1.721 1.813 3.705 3.8l3.607 3.613h-7.791c-6.447 0-7.833 0.012-8.035 0.073-0.332 0.104-0.603 0.323-0.773 0.608l-0.003 0.006c-0.121 0.208-0.144 0.307-0.144 0.645 0 0.341 0.021 0.437 0.148 0.652 0.167 0.284 0.424 0.5 0.719 0.605 0.164 0.059 1.629 0.072 8.040 0.073l7.839 0.003-3.607 3.613c-1.984 1.988-3.652 3.697-3.705 3.8-0.069 0.132-0.099 0.304-0.099 0.587-0.001 0.344 0.020 0.436 0.149 0.656 0.173 0.296 0.492 0.545 0.804 0.631 0.269 0.072 0.707 0.032 0.945-0.088 0.099-0.049 2.348-2.253 4.999-4.897 5.231-5.219 5.073-5.044 5.073-5.635s0.161-0.413-5.1-5.66c-4.427-4.416-4.868-4.84-5.108-4.92-0.136-0.050-0.293-0.079-0.456-0.079-0.158 0-0.31 0.027-0.451 0.077l0.009-0.003z"></path>
</symbol>
</defs>
</svg>
